<svg data-v-0dd9719b="" version="1.0" xmlns="http://www.w3.org/2000/svg" xmlns:xlink="http://www.w3.org/1999/xlink" width="100%" height="100%" viewBox="0 0 340.000000 250.000000" preserveAspectRatio="xMidYMid meet" color-interpolation-filters="sRGB" style="margin: auto;"> <rect data-v-0dd9719b="" x="0" y="0" width="100%" height="100%" fill="#fff" fill-opacity="1" class="background"></rect> <rect data-v-0dd9719b="" x="0" y="0" width="100%" height="100%" fill="url(#watermark)" fill-opacity="1" class="watermarklayer"></rect> <g data-v-0dd9719b="" fill="#a40b5d" class="icon-text-wrapper icon-svg-group iconsvg" transform="translate(56.04499816894531,95.94853019714355)"><g class="iconsvg-imagesvg" transform="translate(0,0)"><g><rect fill="#a40b5d" fill-opacity="0" stroke-width="2" x="0" y="0" width="60" height="58.10293904033312" class="image-rect"></rect> <svg x="0" y="0" width="60" height="58.10293904033312" filtersec="colorsb8760352031" class="image-svg-svg primary" style="overflow: visible;"><svg xmlns="http://www.w3.org/2000/svg" viewBox="0.005431043449789286 0.01844402775168419 54.79892349243164 53.066341400146484"><defs><linearGradient id="a6cca5a17-9350-4080-a06b-5a9c05353018" x1="24.04" x2="24.04" y2="24.96" gradientUnits="userSpaceOnUse"><stop offset="0" stop-color="#2ea7e0"></stop><stop offset="1" stop-color="#0062b1"></stop></linearGradient><linearGradient id="b6eb8b9fb-a90d-46ee-9660-b0b7b107d422" x1="32.18" y1="13.33" x2="32.18" y2=".99" gradientUnits="userSpaceOnUse"><stop offset="0" stop-color="#2ea7e0"></stop><stop offset="1" stop-color="#00499f"></stop></linearGradient><linearGradient id="cc46ebb5c-ef8e-40b6-aff8-8b522fb2d288" x1="22.29" y1="26.93" x2="0" y2="26.93" gradientUnits="userSpaceOnUse"><stop offset="0" stop-color="#f18d00"></stop><stop offset="1" stop-color="#fdd02b"></stop></linearGradient><linearGradient id="d45146e55-9190-4ac3-ac9d-c816a1137a06" x1="2.21" y1="17.76" x2="15.02" y2="17.76" gradientUnits="userSpaceOnUse"><stop offset="0" stop-color="#ec6500"></stop><stop offset="1" stop-color="#f8b100"></stop></linearGradient><linearGradient id="ee6e7c040-894e-4292-931e-aaf4ab0fef2d" x1="21.36" y1="33.96" x2="21.36" y2="53.07" gradientUnits="userSpaceOnUse"><stop offset="0" stop-color="#a40b5d"></stop><stop offset="1" stop-color="#e61673"></stop></linearGradient><linearGradient id="fc70e4a32-e500-42ab-993c-776f15a6b972" x1="12.2" y1="49.32" x2="12.2" y2="35.8" gradientUnits="userSpaceOnUse"><stop offset="0" stop-color="#920252"></stop><stop offset="1" stop-color="#e61673"></stop></linearGradient><linearGradient id="ge58fa33e-3165-491b-8e79-5e6ed13fd050" x1="40.48" y1="24.08" x2="40.48" y2="52.92" gradientUnits="userSpaceOnUse"><stop offset="0" stop-color="#00913a"></stop><stop offset="1" stop-color="#8fc31f"></stop></linearGradient><linearGradient id="h919834f4-668e-452e-abf6-d00756ba8370" x1="35.84" y1="52.92" x2="35.84" y2="41.47" gradientUnits="userSpaceOnUse"><stop offset="0" stop-color="#00782e"></stop><stop offset="1" stop-color="#4fb233"></stop></linearGradient><linearGradient id="i64785d7f-5b6a-4bdc-89c7-18df817dbace" x1="54.8" y1="19.03" x2="26.99" y2="19.03" gradientUnits="userSpaceOnUse"><stop offset="0" stop-color="#dcdddd"></stop><stop offset="1" stop-color="#898989"></stop></linearGradient><linearGradient id="j92be781e-3d3f-40c9-aefc-601a93622bcf" x1="43.77" y1="30.43" x2="53.17" y2="21.03" gradientUnits="userSpaceOnUse"><stop offset="0" stop-color="#b5b5b6"></stop><stop offset="1" stop-color="#6a6969"></stop></linearGradient></defs><g><g><path d="M32.51 1.64a4 4 0 0 0-2-.64 3.5 3.5 0 0 0-3.16 2 3.39 3.39 0 0 0-.28.94l-3.44 20.2-1.37.15L23.38 18l-.84.08-1.11 6.34-1.37.13 1.12-6.34-.84.08-1.12 6.31-1.34.13L19 18.39l-.84.08-1.11 6.34-1.48.19s0-.07 1.82-11.45c.26-1.7.58-3.66.94-5.9a9.1 9.1 0 0 1 14.18-6z" fill="url(#a6cca5a17-9350-4080-a06b-5a9c05353018)"></path><path d="M32.51 1.64a9.15 9.15 0 0 1 3.81 6.12l.7 4.4-7.88 1.17L27.35 3a3.5 3.5 0 0 1 3.16-2 4 4 0 0 1 2 .64z" fill="url(#b6eb8b9fb-a90d-46ee-9660-b0b7b107d422)"></path><path d="M3.61 15.27A4 4 0 0 0 2.38 17a3.49 3.49 0 0 0 .94 3.62 3.19 3.19 0 0 0 .81.56l18.15 9.53L22 32l-5.67-3-.18.83 5.67 3-.3 1.34-5.68-3-.18.83 5.67 3-.28 1.31-5.68-3-.18.83 5.68 3-.32 1.47-10.31-5.3c-1.54-.78-3.29-1.69-5.33-2.71A9.12 9.12 0 0 1 .45 19.7a9 9 0 0 1 3.16-4.43z" fill="url(#cc46ebb5c-ef8e-40b6-aff8-8b522fb2d288)"></path><path d="M3.61 15.27a9.11 9.11 0 0 1 7-1.72l4.42.7-1.33 7.85-10.38-1.51A3.49 3.49 0 0 1 2.38 17a4 4 0 0 1 1.22-1.71z" fill="url(#d45146e55-9190-4ac3-ac9d-c816a1137a06)"></path><path d="M7.64 47a3.88 3.88 0 0 0 1.24 1.69 3.46 3.46 0 0 0 3.74.23 3.87 3.87 0 0 0 .78-.6L28.08 34l1.19.7-4.63 4.47.73.41 4.63-4.5 1.17.69-4.61 4.45.73.43 4.62-4.47 1.16.68-4.63 4.47.73.41 4.63-4.45 1.29.74-8.21 8.19-4.24 4.22a9.1 9.1 0 0 1-15-3.44z" fill="url(#ee6e7c040-894e-4292-931e-aaf4ab0fef2d)"></path><path d="M7.64 47a9.11 9.11 0 0 1 .53-7.2l2-4 7.06 3.67-4.63 9.41a3.46 3.46 0 0 1-3.74-.23A3.88 3.88 0 0 1 7.64 47z" fill="url(#fc70e4a32-e500-42ab-993c-776f15a6b972)"></path><path d="M39 52.92a3.91 3.91 0 0 0 2-.66 3.47 3.47 0 0 0 1.36-3.47 3.74 3.74 0 0 0-.31-.93L33 29.46l1-.91 2.81 5.79.63-.56L34.65 28l1-.93 2.81 5.79.63-.56-2.79-5.77 1-.89 2.81 5.77.63-.56-2.81-5.77 1.13-1s0 .07 5.24 10.34l2.7 5.33a9.11 9.11 0 0 1-2.79 11.43A9 9 0 0 1 39 52.92z" fill="url(#ge58fa33e-3165-491b-8e79-5e6ed13fd050)"></path><path d="M39 52.92a9.1 9.1 0 0 1-6.69-2.73L29.22 47l5.68-5.57 7.51 7.31A3.47 3.47 0 0 1 41 52.25a3.91 3.91 0 0 1-2 .66z" fill="url(#h919834f4-668e-452e-abf6-d00756ba8370)"></path><path d="M54.42 24.9a4 4 0 0 0 0-2.1 3.46 3.46 0 0 0-2.9-2.36 3.21 3.21 0 0 0-1 0l-20.29 3-.56-1.26 6.37-.88-.33-.78-6.37.89-.55-1.26 6.35-.89-.33-.78-6.37.89-.53-1.22 6.35-.88-.26-.8-6.37.89L27 16l11.45-1.8 5.91-.93A9.11 9.11 0 0 1 54.42 24.9z" fill="url(#i64785d7f-5b6a-4bdc-89c7-18df817dbace)"></path><path d="M54.42 24.9a9.05 9.05 0 0 1-4.67 5.51l-4 2-3.54-7.13 9.26-4.88a3.46 3.46 0 0 1 2.9 2.36 4 4 0 0 1 0 2.1z" fill="url(#j92be781e-3d3f-40c9-aefc-601a93622bcf)"></path></g></g></svg></svg> <!----></g></g> <g transform="translate(67,5.170221328735352)"><g data-gra="path-name" fill-rule="" class="tp-name iconsvg-namesvg" transform="translate(0,0)"><g transform="scale(1)"><g><path d="M4.46-15.25L4.46-1.75C4.46-0.9 4.95-0.4 5.8-0.4L10.8-0.4C11.65-0.4 12.15-0.9 12.15-1.75L12.15-3.73C12.15-4.32 12.46-4.63 13.05-4.63L28.35-4.63C28.93-4.63 29.25-4.41 29.25-4.09 29.25-3.73 29.11-3.38 28.84-3.06L27.99-1.98C27.31-1.13 27.68-0.36 28.8-0.36L33.88-0.36C35.55-0.36 36.95-1.67 36.95-3.42L36.95-15.25C36.95-16.11 36.45-16.61 35.59-16.61L5.8-16.61C4.95-16.61 4.46-16.11 4.46-15.25ZM4.46-23.8L4.46-23.09C4.46-22.23 4.95-21.73 5.8-21.73L15.52-21.73C16.11-21.73 16.43-21.55 16.43-21.33 16.43-21.06 16.11-20.88 15.52-20.88L4.09-20.88C3.24-20.88 2.75-20.38 2.75-19.53L2.75-18.81C2.75-17.95 3.24-17.46 4.09-17.46L37.3-17.46C38.16-17.46 38.66-17.95 38.66-18.81L38.66-19.53C38.66-20.38 38.16-20.88 37.3-20.88L25.88-20.88C25.29-20.88 24.97-21.06 24.97-21.33 24.97-21.6 25.29-21.73 25.88-21.73L34.74-21.73C35.59-21.73 36.09-22.23 36.09-23.09L36.09-23.8C36.09-24.66 35.59-25.15 34.74-25.15L25.88-25.15C25.29-25.15 24.97-25.33 24.97-25.61 24.97-25.88 25.29-26.01 25.88-26.01L36.45-26.01C37.3-26.01 37.8-26.5 37.8-27.36L37.8-28.08C37.8-28.93 37.3-29.43 36.45-29.43L25.88-29.43C25.29-29.43 24.97-29.74 24.97-30.33L24.97-30.73C24.97-31.54 24.48-31.99 23.63-31.99L16.83-31.99C15.71-31.99 15.3-31.23 16.02-30.33L16.02-30.33C16.29-29.97 16.43-29.74 16.43-29.65 16.43-29.52 16.11-29.43 15.52-29.43L4.95-29.43C4.09-29.43 3.6-28.93 3.6-28.08L3.6-27.36C3.6-26.5 4.09-26.01 4.95-26.01L15.52-26.01C16.11-26.01 16.43-25.83 16.43-25.61 16.43-25.33 16.11-25.15 15.52-25.15L5.8-25.15C4.95-25.15 4.46-24.66 4.46-23.8ZM13.05-13.18L28.35-13.18C28.93-13.18 29.25-13 29.25-12.78 29.25-12.51 28.93-12.33 28.35-12.33L13.05-12.33C12.46-12.33 12.15-12.51 12.15-12.78 12.15-13.05 12.46-13.18 13.05-13.18ZM13.05-8.91L28.35-8.91C28.93-8.91 29.25-8.73 29.25-8.5 29.25-8.23 28.93-8.05 28.35-8.05L13.05-8.05C12.46-8.05 12.15-8.23 12.15-8.5 12.15-8.78 12.46-8.91 13.05-8.91ZM68.44-18.36L73.75-18.36C75.51-18.36 76.91-19.75 76.91-21.51L76.91-27.81C76.91-28.66 76.41-29.16 75.56-29.16L65.43-29.16C64.75-29.16 64.48-29.61 64.8-30.24L64.98-30.55C65.38-31.36 64.94-31.95 63.9-31.95L57.1-31.95C56.2-31.95 55.8-31.5 55.98-30.96 56.16-30.46 56.3-30.15 56.07-29.74 55.84-29.34 55.53-29.16 55.03-29.16L45.54-29.16C44.68-29.16 44.19-28.66 44.19-27.81L44.19-14.85C44.19-13.99 44.68-13.5 45.54-13.5L70.83-13.5C71.41-13.5 71.73-13.18 71.73-12.6L71.73-4C71.73-3.42 71.41-3.1 70.83-3.1L66.47-3.1C65.79-3.1 65.3-2.92 64.8-2.43L63.67-1.3C62.82-0.45 63.22 0.36 64.39 0.36L76.72 0.36C78.48 0.36 80.1-0.94 80.1-2.7L80.1-15.97C80.1-16.83 79.6-17.32 78.75-17.32L52.96-17.32C52.38-17.32 52.06-17.64 52.06-18.22L52.06-24.43C52.06-25.02 52.38-25.33 52.96-25.33L67.86-25.33C68.44-25.33 68.76-25.02 68.76-24.43L68.8-21.73C68.8-21.24 68.67-20.93 68.35-20.61L67.45-19.71C66.78-19.04 67.23-18.36 68.44-18.36ZM49.59-11.92L45.49-11.92C44.64-11.92 44.14-11.43 44.14-10.57L44.14-5.58C44.14-4.72 44.64-4.23 45.49-4.23L68.22-4.23C69.08-4.23 69.57-4.72 69.57-5.58L69.57-10.66C69.57-11.52 69.08-12.01 68.22-12.01L64.3-12.01C63.45-12.01 62.95-11.52 62.95-10.66L62.95-8.46C62.95-7.88 62.64-7.56 62.05-7.56L61.29-7.56C60.7-7.56 60.39-7.88 60.39-8.46L60.39-11.34C60.39-12.2 59.89-12.69 59.04-12.69L54.85-12.69C54-12.69 53.5-12.2 53.5-11.34L53.5-8.46C53.5-7.88 53.19-7.56 52.6-7.56L51.84-7.56C51.25-7.56 50.94-7.88 50.94-8.46L50.94-10.57C50.94-11.43 50.45-11.92 49.59-11.92ZM55.39-22.32L57.06-19.57C57.42-18.95 57.96-18.68 58.68-18.68L63.13-18.68C64.22-18.68 64.58-19.39 64.03-20.29L62.37-23.04C62.01-23.67 61.47-23.94 60.75-23.94L56.3-23.94C55.21-23.94 54.85-23.22 55.39-22.32ZM120.6-20.43L112.23-31.18C111.78-31.72 111.28-31.99 110.56-31.99L93.28-31.99C92.2-31.99 91.84-31.32 92.38-30.38 92.61-29.92 92.61-29.56 92.3-29.16L85.5-20.43C84.83-19.53 85.19-18.77 86.31-18.77L91.48-18.77C92.16-18.77 92.47-18.36 92.2-17.73L84.91-1.17C84.51-0.22 84.96 0.4 85.95 0.4L91.26 0.4C92.02 0.4 92.52 0.04 92.83-0.63L95.08-5.85C95.35-6.43 95.89-6.52 96.34-6.08L99.99-2.61 100.03-2.61C100.03-2.61 99.9-2.21 99.63-1.57L99.45-1.13C99.09-0.22 99.5 0.4 100.48 0.4L105.79 0.4C106.56 0.4 107.05 0.04 107.37-0.63L109.44-5.44C109.71-6.12 110.29-6.12 110.7-5.54L114.03-0.45C114.44 0.14 114.93 0.4 115.65 0.4L120.78 0.4C121.86 0.4 122.22-0.27 121.63-1.21L113.63-13.46C113.35-13.86 113.31-14.22 113.49-14.67L115.02-18.09C115.2-18.54 115.6-18.77 116.1-18.77L119.79-18.77C120.91-18.77 121.28-19.53 120.6-20.43ZM100.39-27.72L105.7-27.72C106.16-27.72 106.52-27.54 106.78-27.18L112.09-20.25C112.54-19.66 112.32-19.17 111.55-19.17L107.55-19.17C106.65-19.17 106.2-18.77 106.33-18.27 106.42-17.82 106.6-17.5 106.42-17.05L102.87-9C102.6-8.41 102.06-8.32 101.61-8.78L98.46-11.74C98.1-12.11 98.01-12.55 98.23-13L100.26-17.59C100.66-18.54 100.22-19.17 99.22-19.17L94.45-19.17C93.69-19.17 93.47-19.66 93.91-20.25L99.31-27.18C99.58-27.54 99.94-27.72 100.39-27.72ZM126.13-2.65L126.13-1.8C126.13-0.94 126.63-0.45 127.48-0.45L162.31-0.45C163.17-0.45 163.66-0.94 163.66-1.8L163.66-2.65C163.66-3.51 163.17-4 162.31-4 162.04-4 161.86-4.32 161.86-4.91L161.86-11.29C161.86-12.15 161.37-12.64 160.51-12.64L129.28-12.64C128.43-12.64 127.93-12.15 127.93-11.29L127.93-4.91C127.93-4.32 127.62-4 127.03-4L127.03-4C126.45-4 126.13-3.51 126.13-2.65ZM159.52-13.32C161.28-13.32 162.58-14.35 162.58-15.57L162.58-29.88C162.58-30.73 162.09-31.23 161.23-31.23L145.44-31.23C144.58-31.23 144.09-30.73 144.09-29.88L144.09-14.67C144.09-13.81 144.58-13.32 145.44-13.32L149.67-13.32C150.52-13.32 151.02-13.81 151.02-14.67L151.02-17.5C151.02-18.09 151.33-18.4 151.92-18.4L154.3-18.4C154.89-18.4 155.2-18.09 155.2-17.5L155.2-16.02C155.2-15.57 155.07-15.21 154.8-14.89L154.3-14.35C153.81-13.77 154.39-13.32 155.56-13.32ZM129.01-14.94L141.12-14.94C141.97-14.94 142.47-15.43 142.47-16.29L142.47-29.7C142.47-30.55 141.97-31.05 141.12-31.05L128.11-31.05C127.03-31.05 126.63-30.33 127.17-29.43L127.35-29.11C127.57-28.71 127.66-28.44 127.66-28.04L127.66-16.29C127.66-15.43 128.16-14.94 129.01-14.94ZM154.66-7.96L154.66-4.91C154.66-4.32 154.35-4 153.76-4L153.45-4C152.86-4 152.55-4.32 152.55-4.91L152.55-7.96C152.55-8.55 152.86-8.87 153.45-8.87L153.76-8.87C154.35-8.87 154.66-8.55 154.66-7.96ZM144.94-8.87L145.21-8.87C145.8-8.87 146.11-8.55 146.11-7.96L146.11-4.91C146.11-4.32 145.8-4 145.21-4L144.94-4C144.36-4 144.04-4.32 144.04-4.91L144.04-7.96C144.04-8.55 144.36-8.87 144.94-8.87ZM136.48-8.87L136.71-8.87C137.29-8.87 137.61-8.55 137.61-7.96L137.61-4.91C137.61-4.32 137.29-4 136.71-4L136.48-4C135.9-4 135.58-4.32 135.58-4.91L135.58-7.96C135.58-8.55 135.9-8.87 136.48-8.87ZM151.92-23.45L154.3-23.45C154.89-23.45 155.2-23.13 155.2-22.54L155.2-22.09C155.2-21.51 154.89-21.2 154.3-21.2L151.92-21.2C151.33-21.2 151.02-21.51 151.02-22.09L151.02-22.54C151.02-23.13 151.33-23.45 151.92-23.45ZM151.92-28.44L154.3-28.44C154.89-28.44 155.2-28.13 155.2-27.54L155.2-27.13C155.2-26.55 154.89-26.23 154.3-26.23L151.92-26.23C151.33-26.23 151.02-26.55 151.02-27.13L151.02-27.54C151.02-28.13 151.33-28.44 151.92-28.44ZM136.53-26.28L136.53-25.38C136.53-24.79 136.21-24.48 135.63-24.48L134.5-24.48C133.92-24.48 133.6-24.79 133.6-25.38L133.6-26.28C133.6-26.86 133.92-27.18 134.5-27.18L135.63-27.18C136.21-27.18 136.53-26.86 136.53-26.28ZM133.6-19.71L133.6-20.61C133.6-21.2 133.92-21.51 134.5-21.51L135.63-21.51C136.21-21.51 136.53-21.2 136.53-20.61L136.53-19.71C136.53-19.13 136.21-18.81 135.63-18.81L134.5-18.81C133.92-18.81 133.6-19.13 133.6-19.71Z" transform="translate(-2.75, 31.989999771118164)"></path></g> <!----> <!----> <!----> <!----> <!----> <!----> <!----></g></g> <g data-gra="path-slogan" fill-rule="" class="tp-slogan iconsvg-slogansvg" fill="#a40b5d" transform="translate(5,38.38999938964844)"><rect x="0" height="1" y="4.185000419616699" width="3.69000244140625"></rect> <rect height="1" y="4.185000419616699" width="3.69000244140625" x="147.22000122070312"></rect> <g transform="translate(6.69000244140625,0)"><g transform="scale(1)"><path d="M5.91-1.08L5.02-1.78L5.63-2.48L6.70-1.64Q7.69-2.63 7.69-4.27L7.69-4.27Q7.50-7.64 4.69-7.83L4.69-7.83Q1.83-7.69 1.69-4.27L1.69-4.27Q1.83-0.94 4.69-0.80L4.69-0.80Q5.39-0.80 5.91-1.08L5.91-1.08ZM7.64-0.94L8.77-0.05L8.20 0.56L6.89-0.33Q6.05 0.14 4.69 0.14L4.69 0.14Q0.75 0 0.47-4.27L0.47-4.27Q0.70-8.72 4.69-8.81L4.69-8.81Q8.58-8.67 8.86-4.27L8.86-4.27Q8.81-2.20 7.64-0.94L7.64-0.94ZM10.41-8.58L11.58-8.58L11.58 0L10.41 0L10.41-8.58ZM14.95-8.58L19.27-1.64L19.27-8.58L20.39-8.58L20.39 0L19.08 0L14.72-6.94L14.67-6.94L14.67 0L13.55 0L13.55-8.58L14.95-8.58ZM28.59-3.61L25.97-3.61L25.97-4.59L29.72-4.59L29.72 0L28.97 0L28.69-1.08Q27.70 0.09 25.88 0.14L25.88 0.14Q24.14 0.14 23.20-0.75L23.20-0.75Q21.80-2.06 21.84-4.36L21.84-4.36Q22.17-8.63 25.92-8.81L25.92-8.81Q29.11-8.63 29.58-6L29.58-6L28.45-6Q27.98-7.78 25.88-7.83L25.88-7.83Q23.20-7.64 23.06-4.31L23.06-4.31Q23.06-0.75 25.92-0.75L25.92-0.75Q26.95-0.75 27.70-1.31L27.70-1.31Q28.64-2.06 28.59-3.61L28.59-3.61ZM35.02 0L31.55 0L31.55-8.58L35.06-8.58Q38.53-8.39 38.67-4.41L38.67-4.41Q38.48-0.09 35.02 0L35.02 0ZM34.88-7.64L32.72-7.64L32.72-0.98L34.97-0.98Q37.41-1.13 37.50-4.31L37.50-4.31Q37.45-7.55 34.88-7.64L34.88-7.64ZM45.80 0L44.95-2.48L41.48-2.48L40.59 0L39.42 0L42.66-8.58L43.97-8.58L47.06 0L45.80 0ZM43.22-7.31L41.86-3.52L44.53-3.52L43.27-7.31L43.22-7.31ZM54.89-4.27L54.89-4.27Q54.70-7.64 51.89-7.83L51.89-7.83Q49.03-7.69 48.89-4.27L48.89-4.27Q49.03-0.94 51.89-0.80L51.89-0.80Q54.70-0.98 54.89-4.27ZM56.06-4.27L56.06-4.27Q55.78 0 51.89 0.14L51.89 0.14Q47.95 0 47.67-4.27L47.67-4.27Q47.91-8.72 51.89-8.81L51.89-8.81Q55.78-8.67 56.06-4.27ZM61.59-1.03L66.89-1.03L66.89 0L60.14 0L60.14-0.94L65.39-7.59L60.52-7.59L60.52-8.58L66.89-8.58L66.89-7.59L61.59-1.03ZM69.19-5.06L73.69-5.06L73.69-8.58L74.86-8.58L74.86 0L73.69 0L73.69-3.98L69.19-3.98L69.19 0L68.02 0L68.02-8.58L69.19-8.58L69.19-5.06ZM83.44-4.27L83.44-4.27Q83.25-7.64 80.44-7.83L80.44-7.83Q77.58-7.69 77.44-4.27L77.44-4.27Q77.58-0.94 80.44-0.80L80.44-0.80Q83.25-0.98 83.44-4.27ZM84.61-4.27L84.61-4.27Q84.33 0 80.44 0.14L80.44 0.14Q76.50 0 76.22-4.27L76.22-4.27Q76.45-8.72 80.44-8.81L80.44-8.81Q84.33-8.67 84.61-4.27ZM87.38-8.58L91.69-1.64L91.69-8.58L92.81-8.58L92.81 0L91.50 0L87.14-6.94L87.09-6.94L87.09 0L85.97 0L85.97-8.58L87.38-8.58ZM101.02-3.61L98.39-3.61L98.39-4.59L102.14-4.59L102.14 0L101.39 0L101.11-1.08Q100.13 0.09 98.30 0.14L98.30 0.14Q96.56 0.14 95.63-0.75L95.63-0.75Q94.22-2.06 94.27-4.36L94.27-4.36Q94.59-8.63 98.34-8.81L98.34-8.81Q101.53-8.63 102-6L102-6L100.88-6Q100.41-7.78 98.30-7.83L98.30-7.83Q95.63-7.64 95.48-4.31L95.48-4.31Q95.48-0.75 98.34-0.75L98.34-0.75Q99.38-0.75 100.13-1.31L100.13-1.31Q101.06-2.06 101.02-3.61L101.02-3.61ZM112.17-8.58L112.17 0L111.05 0L111.05-5.06Q111.05-5.77 111.05-7.22L111.05-7.22L108.61 0L107.44 0L105.05-7.22L105-7.22Q105-6.70 105.05-5.67L105.05-5.67Q105.05-5.16 105.05-5.06L105.05-5.06L105.05 0L103.88 0L103.88-8.58L105.56-8.58L108.05-1.31L110.48-8.58L112.17-8.58ZM115.17-1.03L120.33-1.03L120.33 0L114 0L114-8.58L120.23-8.58L120.23-7.59L115.17-7.59L115.17-4.92L119.86-4.92L119.86-3.89L115.17-3.89L115.17-1.03ZM123.23-8.58L127.55-1.64L127.55-8.58L128.67-8.58L128.67 0L127.36 0L123-6.94L122.95-6.94L122.95 0L121.83 0L121.83-8.58L123.23-8.58ZM136.88-3.61L134.25-3.61L134.25-4.59L138-4.59L138 0L137.25 0L136.97-1.08Q135.98 0.09 134.16 0.14L134.16 0.14Q132.42 0.14 131.48-0.75L131.48-0.75Q130.08-2.06 130.13-4.36L130.13-4.36Q130.45-8.63 134.20-8.81L134.20-8.81Q137.39-8.63 137.86-6L137.86-6L136.73-6Q136.27-7.78 134.16-7.83L134.16-7.83Q131.48-7.64 131.34-4.31L131.34-4.31Q131.34-0.75 134.20-0.75L134.20-0.75Q135.23-0.75 135.98-1.31L135.98-1.31Q136.92-2.06 136.88-3.61L136.88-3.61Z" transform="translate(-0.46875, 8.8125)"></path></g></g></g></g></g><defs v-gra="od"></defs></svg>